<?xml version="1.0" encoding="UTF-8" standalone="no"?>
<!-- Generator: Adobe Illustrator 23.0.1, SVG Export Plug-In . SVG Version: 6.00 Build 0) -->

<svg
   xmlns:dc="http://purl.org/dc/elements/1.1/"
   xmlns:cc="http://creativecommons.org/ns#"
   xmlns:rdf="http://www.w3.org/1999/02/22-rdf-syntax-ns#"
   xmlns:svg="http://www.w3.org/2000/svg"
   xmlns="http://www.w3.org/2000/svg"
   xmlns:sodipodi="http://sodipodi.sourceforge.net/DTD/sodipodi-0.dtd"
   xmlns:inkscape="http://www.inkscape.org/namespaces/inkscape"
   id="Layer_1"
   x="0px"
   y="0px"
   width="20.080008"
   height="17.514448"
   viewBox="0 0 20.080007 17.514448"
   xml:space="preserve"
   version="1.1"
   sodipodi:docname="wph-logo-footer_mini.svg"
   inkscape:version="0.92.4 (f8dce91, 2019-08-02)"><metadata
   id="metadata9"><rdf:RDF><cc:Work
       rdf:about=""><dc:format>image/svg+xml</dc:format><dc:type
         rdf:resource="http://purl.org/dc/dcmitype/StillImage" /><dc:title></dc:title></cc:Work></rdf:RDF></metadata><defs
   id="defs7" /><sodipodi:namedview
   pagecolor="#ffffff"
   bordercolor="#666666"
   borderopacity="1"
   objecttolerance="10"
   gridtolerance="10"
   guidetolerance="10"
   inkscape:pageopacity="0"
   inkscape:pageshadow="2"
   inkscape:window-width="1853"
   inkscape:window-height="1025"
   id="namedview5"
   showgrid="false"
   inkscape:zoom="4.1622574"
   inkscape:cx="56.381145"
   inkscape:cy="26.249999"
   inkscape:window-x="67"
   inkscape:window-y="27"
   inkscape:window-maximized="1"
   inkscape:current-layer="Layer_1" /> <path
   d="m 6.3757201,13.145921 c -0.2609942,0 -0.4474188,-0.156019 -0.5219888,-0.390048 C 5.555452,11.897772 5.3317425,10.961657 5.3317425,10.025544 5.3690275,5.9300497 8.6128149,2.5756457 12.527729,2.5756457 c 0.298282,0 0.559276,0.273032 0.559276,0.585069 0,0.312039 -0.260994,0.585071 -0.559276,0.585071 h -0.03729 c -3.3183574,-0.03899 -6.0028711,2.769335 -6.0774411,6.240753 0,0.7410903 0.1491399,1.5991943 0.4101343,2.3012783 0.1118546,0.312037 -0.037285,0.624076 -0.2982794,0.74109 0,0.117014 -0.074569,0.117014 -0.1491397,0.117014 z m 6.1892959,4.368527 c -2.125241,0 -4.2504805,-1.014123 -5.5927373,-2.769333 -0.1864244,-0.273034 -0.1491396,-0.624077 0.1118547,-0.858104 0.2609945,-0.195023 0.5965587,-0.156019 0.8202681,0.117014 2.0506696,2.574311 5.5554515,3.042367 8.2026825,1.17014 0.111854,-0.117013 0.186422,-0.117013 0.298278,-0.117013 h 2.311664 l -0.596558,-2.028245 c -0.03729,-0.117014 -0.03729,-0.312038 0.03729,-0.429053 0.298282,-0.819098 0.521992,-1.638197 0.521992,-2.4963 0,-2.6133163 -1.64054,-4.9535973 -3.989488,-5.8507063 -0.298277,-0.117015 -0.447419,-0.468056 -0.372849,-0.741089 0.111855,-0.312037 0.44742,-0.468056 0.708414,-0.312037 2.870937,1.053126 4.735183,3.82246 4.735183,6.9818413 0,0.975118 -0.149139,1.91123 -0.521989,2.808339 l 0.82027,2.613315 c 0.03729,0.156019 0.03729,0.390047 -0.111855,0.546066 -0.111856,0.156019 -0.298279,0.273034 -0.44742,0.273034 h -2.908222 c -1.193116,0.66308 -2.647229,1.092131 -4.026771,1.092131 z M 7.4942677,14.901133 c -0.2982796,0 -0.559274,-0.273033 -0.559274,-0.585071 0,-0.312037 0.2609944,-0.58507 0.559274,-0.58507 3.3183553,0 6.0028703,-2.769335 6.0774413,-6.2407543 0,-0.74109 -0.111856,-1.560188 -0.410134,-2.223269 -0.111854,-0.312037 0.03729,-0.624075 0.298278,-0.741088 0.298279,-0.117014 0.671129,0.03899 0.708415,0.312038 0.298277,0.858102 0.521987,1.75521 0.521987,2.652319 0,4.0954953 -3.281072,7.4108953 -7.1959873,7.4108953 z M 5.3317425,14.511086 c -0.1118548,0 -0.1118548,0 -0.1864245,-0.039 C 4.5860443,14.277056 4.0267705,13.926014 3.4674969,13.613977 H 0.55927369 c -0.18642456,0 -0.37284914,-0.117014 -0.44741896,-0.273033 C 0,13.184925 0,13.028907 0,12.79488 L 0.78298317,10.181563 C 0.41013404,9.2844537 0.26099439,8.3873467 0.26099439,7.3732247 0.37284913,3.2777287 3.6166366,-0.07667533 7.6061222,0.00133367 c 2.1252402,0.039 4.1386258,1.01412303 5.4435988,2.76933403 0.186423,0.273035 0.149138,0.624075 -0.111855,0.858105 -0.186426,0.156019 -0.559274,0.156019 -0.782986,-0.117014 -2.125239,-2.73032903 -6.0028692,-3.15938103 -8.5755282,-0.858105 -1.3795419,1.170142 -2.19981,2.925354 -2.19981,4.797579 0,0.858104 0.1491397,1.755213 0.5219887,2.496303 0.037285,0.1170133 0.111855,0.3120363 0.037285,0.4290503 L 1.342257,12.404832 h 2.3116646 c 0.1118547,0 0.2609943,0.03899 0.2982792,0.117014 0.4474191,0.312037 0.9694079,0.58507 1.5286815,0.819098 0.2982792,0.117014 0.4474191,0.429052 0.3728491,0.74109 -0.037285,0.234028 -0.2609944,0.429052 -0.5219889,0.429052 z"
   id="path2"
   inkscape:connector-curvature="0"
   style="fill:#ffffff;stroke-width:0.38135114" /> </svg>